<?xml version="1.0" encoding="UTF-8"?>
<!DOCTYPE svg PUBLIC "-//W3C//DTD SVG 1.1//EN" "http://www.w3.org/Graphics/SVG/1.1/DTD/svg11.dtd">
<svg xmlns="http://www.w3.org/2000/svg" version="1.1" width="512px" height="512px" style="shape-rendering:geometricPrecision; text-rendering:geometricPrecision; image-rendering:optimizeQuality; fill-rule:evenodd; clip-rule:evenodd" xmlns:xlink="http://www.w3.org/1999/xlink">
<g><path style="opacity:0.966" fill="#010101" d="M 51.5,-0.5 C 56.8333,-0.5 62.1667,-0.5 67.5,-0.5C 82.3369,6.17568 87.8369,17.509 84,33.5C 81.3972,41.1022 76.3972,46.4355 69,49.5C 68.3333,60.5 68.3333,71.5 69,82.5C 112.533,34.3158 166.699,6.64911 231.5,-0.5C 247.5,-0.5 263.5,-0.5 279.5,-0.5C 344.301,6.64911 398.467,34.3158 442,82.5C 442.667,71.5 442.667,60.5 442,49.5C 428.141,42.6099 423.141,31.6099 427,16.5C 429.993,8.34109 435.493,2.67442 443.5,-0.5C 448.833,-0.5 454.167,-0.5 459.5,-0.5C 476.052,7.28828 481.218,19.9549 475,37.5C 471.592,42.742 467.092,46.742 461.5,49.5C 460.334,68.4912 460.167,87.4912 461,106.5C 489.673,150.02 506.506,197.687 511.5,249.5C 511.5,268.167 511.5,286.833 511.5,305.5C 508.877,347.313 496.377,385.98 474,421.5C 449.644,455.172 417.811,479.005 378.5,493C 348.511,503.231 317.845,509.398 286.5,511.5C 265.833,511.5 245.167,511.5 224.5,511.5C 180.57,509.141 138.903,497.975 99.5,478C 49.1481,448.54 17.9814,405.04 6,347.5C 3.20867,333.449 1.042,319.449 -0.5,305.5C -0.5,286.833 -0.5,268.167 -0.5,249.5C 4.49387,197.687 21.3272,150.02 50,106.5C 50.833,87.4912 50.6664,68.4912 49.5,49.5C 33.0098,39.8581 29.1764,26.5247 38,9.5C 41.5795,4.73071 46.0795,1.39738 51.5,-0.5 Z"/></g>
<g><path style="opacity:1" fill="#01a3ec" d="M 56.5,16.5 C 65.1532,15.9867 68.6532,19.9867 67,28.5C 64.4586,33.0685 60.6253,34.5685 55.5,33C 48.6707,27.0031 49.004,21.5031 56.5,16.5 Z"/></g>
<g><path style="opacity:1" fill="#f3f3f3" d="M 330.5,29.5 C 404.246,67.5337 450.746,127.2 470,208.5C 476.547,236.328 478.714,264.328 476.5,292.5C 467.255,234.42 434.255,197.586 377.5,182C 371.29,180.278 364.957,179.278 358.5,179C 288.5,178.333 218.5,178.333 148.5,179C 89.1863,188.647 51.6863,222.48 36,280.5C 27.6641,334.856 45.1641,378.689 88.5,412C 105.864,423.513 124.864,430.847 145.5,434C 218.167,434.667 290.833,434.667 363.5,434C 407.919,427.823 440.919,405.323 462.5,366.5C 463.239,366.369 463.906,366.536 464.5,367C 447.649,416.925 415.649,453.425 368.5,476.5C 349.301,484.132 329.301,488.965 308.5,491C 251.721,499.023 196.054,494.357 141.5,477C 69.1716,449.251 28.3382,396.751 19,319.5C 9.01993,245.101 24.6866,176.767 66,114.5C 128.508,33.3177 210.342,2.81767 311.5,23C 318.088,24.7219 324.421,26.8886 330.5,29.5 Z"/></g>
<g><path style="opacity:1" fill="#01a3ec" d="M 448.5,16.5 C 457.874,16.3565 461.374,20.6898 459,29.5C 453.514,35.0804 448.514,34.747 444,28.5C 442.474,23.2389 443.974,19.2389 448.5,16.5 Z"/></g>
<g><path style="opacity:1" fill="#ccd5d9" d="M 330.5,29.5 C 364.264,40.3773 393.598,58.3773 418.5,83.5C 464.036,131.599 489.202,188.932 494,255.5C 497.368,300.914 490.368,344.581 473,386.5C 450.676,430.988 415.843,460.988 368.5,476.5C 415.649,453.425 447.649,416.925 464.5,367C 463.906,366.536 463.239,366.369 462.5,366.5C 474.241,343.13 478.908,318.464 476.5,292.5C 478.714,264.328 476.547,236.328 470,208.5C 450.746,127.2 404.246,67.5337 330.5,29.5 Z"/></g>
<g><path style="opacity:1" fill="#020202" d="M 242.5,119.5 C 250.84,119.334 259.173,119.5 267.5,120C 272.568,122.983 273.735,127.149 271,132.5C 270.097,133.701 268.931,134.535 267.5,135C 259.5,135.667 251.5,135.667 243.5,135C 237.327,130.276 236.994,125.109 242.5,119.5 Z"/></g>
<g><path style="opacity:1" fill="#020202" d="M 226.5,144.5 C 245.503,144.333 264.503,144.5 283.5,145C 289.574,147.899 291.074,152.399 288,158.5C 286.829,159.893 285.329,160.727 283.5,161C 264.5,161.667 245.5,161.667 226.5,161C 222.275,158.337 220.775,154.504 222,149.5C 223.707,147.963 225.207,146.296 226.5,144.5 Z"/></g>
<g><path style="opacity:1" fill="#030303" d="M 476.5,292.5 C 478.908,318.464 474.241,343.13 462.5,366.5C 440.919,405.323 407.919,427.823 363.5,434C 290.833,434.667 218.167,434.667 145.5,434C 124.864,430.847 105.864,423.513 88.5,412C 45.1641,378.689 27.6641,334.856 36,280.5C 51.6863,222.48 89.1863,188.647 148.5,179C 218.5,178.333 288.5,178.333 358.5,179C 364.957,179.278 371.29,180.278 377.5,182C 434.255,197.586 467.255,234.42 476.5,292.5 Z"/></g>
<g><path style="opacity:1" fill="#5f7c8a" d="M 379.5,200.5 C 432.561,233.319 452.061,280.319 438,341.5C 427.781,372.539 408.614,396.206 380.5,412.5C 374.354,414.638 368.021,416.138 361.5,417C 290.167,417.667 218.833,417.667 147.5,417C 102.109,409.273 71.6089,383.773 56,340.5C 42.9174,291.419 55.7507,250.586 94.5,218C 111.249,205.969 129.915,198.636 150.5,196C 219.5,195.333 288.5,195.333 357.5,196C 365.081,196.527 372.415,198.027 379.5,200.5 Z"/></g>
<g><path style="opacity:1" fill="#36464e" d="M 379.5,200.5 C 423.274,214.113 449.774,243.446 459,288.5C 464.246,332.45 449.746,368.283 415.5,396C 404.86,403.653 393.193,409.153 380.5,412.5C 408.614,396.206 427.781,372.539 438,341.5C 452.061,280.319 432.561,233.319 379.5,200.5 Z"/></g>
<g><path style="opacity:1" fill="#010202" d="M 127.5,238.5 C 153.483,236.555 170.316,247.889 178,272.5C 180.309,288.91 175.475,302.744 163.5,314C 147.938,324.91 131.605,326.243 114.5,318C 93.3735,302.86 88.2068,283.36 99,259.5C 105.849,248.807 115.349,241.807 127.5,238.5 Z"/></g>
<g><path style="opacity:1" fill="#010202" d="M 387.5,247.5 C 398.06,246.215 401.893,250.548 399,260.5C 386.563,267.97 373.73,274.803 360.5,281C 373.413,287.706 386.246,294.539 399,301.5C 402,308.834 399.666,313.501 392,315.5C 372.995,306.748 354.162,297.581 335.5,288C 331.539,283.464 331.539,278.964 335.5,274.5C 353.02,265.41 370.353,256.41 387.5,247.5 Z"/></g>
<g><path style="opacity:1" fill="#00b9d1" d="M 129.5,255.5 C 151.999,254.498 162.499,265.165 161,287.5C 155.644,302.266 145.144,308.432 129.5,306C 114.734,300.644 108.568,290.144 111,274.5C 114.017,264.984 120.184,258.651 129.5,255.5 Z"/></g>
<g><path style="opacity:1" fill="#020203" d="M 209.5,349.5 C 211.527,349.338 213.527,349.505 215.5,350C 241.857,371.941 268.19,371.941 294.5,350C 304.596,349.588 307.929,354.088 304.5,363.5C 278.012,386.163 249.345,389.329 218.5,373C 214.656,370.578 210.99,367.911 207.5,365C 203.077,359.133 203.743,353.966 209.5,349.5 Z"/></g>
</svg>
