<?xml version="1.0" encoding="UTF-8"?>
<!DOCTYPE svg PUBLIC "-//W3C//DTD SVG 1.1//EN" "http://www.w3.org/Graphics/SVG/1.1/DTD/svg11.dtd">
<svg xmlns="http://www.w3.org/2000/svg" version="1.1" width="4961px" height="1456px" style="shape-rendering:geometricPrecision; text-rendering:geometricPrecision; image-rendering:optimizeQuality; fill-rule:evenodd; clip-rule:evenodd" xmlns:xlink="http://www.w3.org/1999/xlink">
<g><path style="opacity:0.982" fill="#3653d6" d="M 3150.5,68.5 C 3172.5,68.5 3194.5,68.5 3216.5,68.5C 3213.1,97.9375 3225.77,109.104 3254.5,102C 3260.16,99.6676 3263.66,95.5009 3265,89.5C 3265.5,82.5079 3265.67,75.5079 3265.5,68.5C 3287.83,68.5 3310.17,68.5 3332.5,68.5C 3334.05,89.3793 3331.55,109.713 3325,129.5C 3317.31,146.185 3304.47,156.685 3286.5,161C 3258.21,163.935 3229.88,164.268 3201.5,162C 3174.46,157.297 3158.3,141.464 3153,114.5C 3150.77,99.2591 3149.93,83.9257 3150.5,68.5 Z"/></g>
<g><path style="opacity:0.983" fill="#3653d6" d="M 4686.5,68.5 C 4708.5,68.5 4730.5,68.5 4752.5,68.5C 4749.27,98.434 4762.27,109.601 4791.5,102C 4797.36,98.4385 4800.86,93.2718 4802,86.5C 4802.5,80.5092 4802.67,74.5092 4802.5,68.5C 4824.5,68.5 4846.5,68.5 4868.5,68.5C 4869.04,83.9193 4868.21,99.2526 4866,114.5C 4860.68,141.491 4844.51,157.325 4817.5,162C 4789.12,164.268 4760.79,163.935 4732.5,161C 4708.09,154.408 4693.59,138.575 4689,113.5C 4686.87,98.5799 4686.04,83.5799 4686.5,68.5 Z"/></g>
<g><path style="opacity:0.989" fill="#3653d6" d="M 4091.5,185.5 C 4110.38,185.531 4129.05,187.531 4147.5,191.5C 4147.5,218.167 4147.5,244.833 4147.5,271.5C 4138.1,271.114 4128.77,271.614 4119.5,273C 4112.61,276.886 4107.45,282.386 4104,289.5C 4088.46,324.626 4072.62,359.626 4056.5,394.5C 4089.17,463.833 4121.83,533.167 4154.5,602.5C 4122.17,603.833 4089.83,603.833 4057.5,602.5C 4032.11,547.38 4006.44,492.38 3980.5,437.5C 3965.51,436.501 3950.51,436.167 3935.5,436.5C 3935.5,492.167 3935.5,547.833 3935.5,603.5C 3905.17,603.5 3874.83,603.5 3844.5,603.5C 3844.5,466.167 3844.5,328.833 3844.5,191.5C 3874.83,191.5 3905.17,191.5 3935.5,191.5C 3935.5,245.167 3935.5,298.833 3935.5,352.5C 3950.51,352.833 3965.51,352.499 3980.5,351.5C 3997.61,314.285 4014.44,276.952 4031,239.5C 4038.57,222.511 4049.4,208.011 4063.5,196C 4072.19,190.479 4081.52,186.979 4091.5,185.5 Z"/></g>
<g><path style="opacity:0.996" fill="#3653d6" d="M 26.5,191.5 C 197.5,191.333 368.5,191.5 539.5,192C 581.748,191.915 621.748,201.248 659.5,220C 702.204,245.058 731.37,281.225 747,328.5C 762.655,377.083 769.821,426.916 768.5,478C 770.11,523.062 763.61,566.896 749,609.5C 734.625,647.778 711.792,679.945 680.5,706C 673.004,711.249 665.337,716.249 657.5,721C 703.451,738.281 738.284,768.448 762,811.5C 794.494,873.796 809.328,940.129 806.5,1010.5C 807.95,1067.18 800.117,1122.52 783,1176.5C 755.543,1253.94 701.043,1298.44 619.5,1310C 609.879,1311.44 600.212,1312.44 590.5,1313C 473.5,1313.67 356.5,1313.67 239.5,1313C 132.948,1306.1 66.7814,1250.94 41,1147.5C 33.2548,1115.62 28.5882,1083.28 27,1050.5C 26.5,764.167 26.3333,477.834 26.5,191.5 Z M 253.5,417.5 C 329.167,417.333 404.834,417.5 480.5,418C 506.758,422.204 524.592,436.704 534,461.5C 540.557,483.349 543.057,505.683 541.5,528.5C 543.209,552.418 540.376,575.752 533,598.5C 521.531,624.831 501.364,638.665 472.5,640C 399.501,640.5 326.501,640.667 253.5,640.5C 253.5,566.167 253.5,491.833 253.5,417.5 Z M 253.5,865.5 C 340.834,865.333 428.167,865.5 515.5,866C 547.706,870.535 567.539,888.701 575,920.5C 578.734,939.144 580.234,957.978 579.5,977C 581.03,1001.5 577.863,1025.34 570,1048.5C 559.296,1072.53 540.796,1085.69 514.5,1088C 427.501,1088.5 340.501,1088.67 253.5,1088.5C 253.5,1014.17 253.5,939.833 253.5,865.5 Z"/></g>
<g><path style="opacity:0.99" fill="#3653d6" d="M 1503.5,191.5 C 1575.5,191.333 1647.5,191.5 1719.5,192C 1758.03,193.891 1783.2,213.058 1795,249.5C 1802.95,278.766 1803.28,308.1 1796,337.5C 1789.07,358.425 1776.23,374.592 1757.5,386C 1780.55,394.718 1796.72,410.552 1806,433.5C 1819.61,473.01 1819.94,512.677 1807,552.5C 1793.4,584.237 1769.23,601.07 1734.5,603C 1657.5,603.5 1580.5,603.667 1503.5,603.5C 1503.5,466.167 1503.5,328.833 1503.5,191.5 Z M 1594.5,274.5 C 1624.84,274.333 1655.17,274.5 1685.5,275C 1699.53,277.697 1707.36,286.197 1709,300.5C 1710.12,313.286 1709.46,325.953 1707,338.5C 1703.85,347.984 1697.35,353.484 1687.5,355C 1656.5,355.5 1625.5,355.667 1594.5,355.5C 1594.5,328.5 1594.5,301.5 1594.5,274.5 Z M 1594.5,439.5 C 1630.83,439.333 1667.17,439.5 1703.5,440C 1715.59,443.62 1722.42,451.787 1724,464.5C 1724.67,474.5 1724.67,484.5 1724,494.5C 1723.1,506.727 1716.93,514.893 1705.5,519C 1668.54,520.468 1631.54,520.968 1594.5,520.5C 1594.5,493.5 1594.5,466.5 1594.5,439.5 Z"/></g>
<g><path style="opacity:0.987" fill="#3653d6" d="M 1996.5,191.5 C 2030.5,191.5 2064.5,191.5 2098.5,191.5C 2142.33,328.824 2186.66,465.991 2231.5,603C 2198.17,603.5 2164.83,603.667 2131.5,603.5C 2124.78,579.332 2117.44,555.332 2109.5,531.5C 2067.83,530.167 2026.17,530.167 1984.5,531.5C 1976.56,555.332 1969.22,579.332 1962.5,603.5C 1929.17,603.667 1895.83,603.5 1862.5,603C 1907.07,465.796 1951.73,328.629 1996.5,191.5 Z M 2046.5,317.5 C 2059.89,362.221 2073.23,407.054 2086.5,452C 2060.17,452.667 2033.83,452.667 2007.5,452C 2021.04,407.334 2034.04,362.501 2046.5,317.5 Z"/></g>
<g><path style="opacity:0.986" fill="#3653d6" d="M 2328.5,191.5 C 2421.83,191.5 2515.17,191.5 2608.5,191.5C 2608.5,328.833 2608.5,466.167 2608.5,603.5C 2577.83,603.5 2547.17,603.5 2516.5,603.5C 2516.5,493.833 2516.5,384.167 2516.5,274.5C 2481.44,273.844 2446.61,274.511 2412,276.5C 2407.77,359.505 2403.43,442.505 2399,525.5C 2397.29,555.705 2384.79,580.205 2361.5,599C 2344.75,608.571 2326.75,611.904 2307.5,609C 2294.31,608.369 2281.31,606.535 2268.5,603.5C 2267.5,576.842 2267.17,550.175 2267.5,523.5C 2277.57,523.895 2287.57,523.395 2297.5,522C 2304.82,518.337 2309.65,512.504 2312,504.5C 2317.67,400.153 2323.17,295.82 2328.5,191.5 Z"/></g>
<g><path style="opacity:0.986" fill="#3653d6" d="M 2665.5,191.5 C 2699.41,191.171 2733.24,191.504 2767,192.5C 2796.85,260.864 2826.68,329.197 2856.5,397.5C 2881.82,329.367 2906.66,261.034 2931,192.5C 2965.1,191.338 2999.26,191.171 3033.5,192C 2989.34,303.15 2945.17,414.316 2901,525.5C 2891.86,548.965 2878.36,569.465 2860.5,587C 2843.5,600.227 2824.16,607.56 2802.5,609C 2781.29,610.102 2760.29,608.435 2739.5,604C 2737.51,577.393 2736.85,550.56 2737.5,523.5C 2755.56,523.946 2773.56,523.446 2791.5,522C 2798.99,518.503 2803.49,512.67 2805,504.5C 2805.67,499.833 2805.67,495.167 2805,490.5C 2758.4,390.839 2711.9,291.172 2665.5,191.5 Z"/></g>
<g><path style="opacity:0.988" fill="#3653d6" d="M 3089.5,191.5 C 3120.17,191.5 3150.83,191.5 3181.5,191.5C 3181.33,274.501 3181.5,357.501 3182,440.5C 3221.77,357.955 3261.27,275.288 3300.5,192.5C 3332.83,191.5 3365.16,191.167 3397.5,191.5C 3397.5,328.833 3397.5,466.167 3397.5,603.5C 3367.17,603.5 3336.83,603.5 3306.5,603.5C 3306.67,520.166 3306.5,436.833 3306,353.5C 3266.61,436.622 3226.94,519.622 3187,602.5C 3154.57,603.496 3122.07,603.829 3089.5,603.5C 3089.5,466.167 3089.5,328.833 3089.5,191.5 Z"/></g>
<g><path style="opacity:0.986" fill="#3653d6" d="M 3570.5,191.5 C 3636.17,191.5 3701.83,191.5 3767.5,191.5C 3767.5,219.167 3767.5,246.833 3767.5,274.5C 3711.83,274.333 3656.17,274.5 3600.5,275C 3586.92,277.579 3579.09,285.746 3577,299.5C 3576.33,368.167 3576.33,436.833 3577,505.5C 3581.28,521.57 3591.78,528.57 3608.5,526.5C 3661.6,525.144 3714.6,522.144 3767.5,517.5C 3767.5,544.167 3767.5,570.833 3767.5,597.5C 3698.07,606.11 3628.4,609.61 3558.5,608C 3520.03,601.863 3496.86,579.696 3489,541.5C 3486.73,530.95 3485.4,520.283 3485,509.5C 3484.33,438.5 3484.33,367.5 3485,296.5C 3484.98,270.238 3491.65,245.904 3505,223.5C 3514.41,211.704 3526.24,203.204 3540.5,198C 3550.43,194.851 3560.43,192.685 3570.5,191.5 Z"/></g>
<g><path style="opacity:0.989" fill="#3653d6" d="M 4221.5,191.5 C 4251.83,191.5 4282.17,191.5 4312.5,191.5C 4312.33,274.834 4312.5,358.167 4313,441.5C 4352.94,358.622 4392.61,275.622 4432,192.5C 4464.43,191.504 4496.93,191.171 4529.5,191.5C 4529.5,328.833 4529.5,466.167 4529.5,603.5C 4498.83,603.5 4468.17,603.5 4437.5,603.5C 4437.67,520.499 4437.5,437.499 4437,354.5C 4397.4,437.124 4357.9,519.79 4318.5,602.5C 4286.17,603.5 4253.84,603.833 4221.5,603.5C 4221.5,466.167 4221.5,328.833 4221.5,191.5 Z"/></g>
<g><path style="opacity:0.993" fill="#3653d6" d="M 4626.5,191.5 C 4656.83,191.5 4687.17,191.5 4717.5,191.5C 4717.33,274.834 4717.5,358.167 4718,441.5C 4757.39,358.378 4797.06,275.378 4837,192.5C 4869.09,191.504 4901.26,191.171 4933.5,191.5C 4933.5,328.833 4933.5,466.167 4933.5,603.5C 4903.17,603.5 4872.83,603.5 4842.5,603.5C 4842.67,520.499 4842.5,437.499 4842,354.5C 4802.23,437.045 4762.73,519.712 4723.5,602.5C 4691.17,603.5 4658.84,603.833 4626.5,603.5C 4626.5,466.167 4626.5,328.833 4626.5,191.5 Z"/></g>
<g><path style="opacity:0.992" fill="#3653d6" d="M 923.5,192.5 C 1033.09,199.928 1099.59,257.262 1123,364.5C 1136.98,432.66 1137.98,500.994 1126,569.5C 1115.45,620.796 1091.28,664.296 1053.5,700C 1044.19,707.659 1034.19,714.326 1023.5,720C 1068.85,737.68 1103.35,767.847 1127,810.5C 1154.46,861.649 1169.12,916.316 1171,974.5C 1170.04,1022.1 1173.04,1069.43 1180,1116.5C 1186.42,1158.44 1201.09,1197.11 1224,1232.5C 1257.28,1276.24 1301.45,1301.57 1356.5,1308.5C 1356.5,1310.17 1356.5,1311.83 1356.5,1313.5C 1297.17,1313.67 1237.83,1313.5 1178.5,1313C 1065.93,1307.43 997.765,1249.59 974,1139.5C 967.298,1108.85 963.298,1077.85 962,1046.5C 962.76,1007.35 960.76,968.346 956,929.5C 948.443,877.801 930.109,830.468 901,787.5C 877.606,756.611 847.772,734.278 811.5,720.5C 844.577,701.923 870.077,675.923 888,642.5C 909.803,601.627 921.47,557.96 923,511.5C 923.5,405.167 923.667,298.834 923.5,192.5 Z"/></g>
<g><path style="opacity:0.989" fill="#3653d6" d="M 1750.5,890.5 C 1769.38,890.531 1788.05,892.531 1806.5,896.5C 1806.5,923.167 1806.5,949.833 1806.5,976.5C 1798.49,976.334 1790.49,976.5 1782.5,977C 1775.29,978.868 1769.79,983.034 1766,989.5C 1748.82,1025.88 1732.32,1062.55 1716.5,1099.5C 1748.45,1169 1780.78,1238.33 1813.5,1307.5C 1781.17,1308.83 1748.83,1308.83 1716.5,1307.5C 1691,1252.5 1665.5,1197.5 1640,1142.5C 1624.91,1141.51 1609.74,1141.18 1594.5,1141.5C 1594.5,1197.17 1594.5,1252.83 1594.5,1308.5C 1564.17,1308.5 1533.83,1308.5 1503.5,1308.5C 1503.5,1171.17 1503.5,1033.83 1503.5,896.5C 1533.83,896.5 1564.17,896.5 1594.5,896.5C 1594.5,950.167 1594.5,1003.83 1594.5,1057.5C 1609.74,1057.82 1624.91,1057.49 1640,1056.5C 1658.53,1013.78 1677.86,971.445 1698,929.5C 1704.39,919.106 1712.23,909.94 1721.5,902C 1730.36,895.896 1740.03,892.062 1750.5,890.5 Z"/></g>
<g><path style="opacity:0.987" fill="#3653d6" d="M 1957.5,890.5 C 2008.83,890.333 2060.17,890.5 2111.5,891C 2157.21,893.408 2184.71,916.908 2194,961.5C 2196.15,972.063 2197.49,982.729 2198,993.5C 2198.96,1070.52 2198.63,1147.52 2197,1224.5C 2195.5,1244.18 2189.83,1262.51 2180,1279.5C 2167.95,1296.12 2151.78,1306.62 2131.5,1311C 2124.9,1312.43 2118.23,1313.43 2111.5,1314C 2057.14,1314.96 2002.81,1314.63 1948.5,1313C 1907.61,1307.78 1883.11,1284.95 1875,1244.5C 1872.93,1234.26 1871.6,1223.93 1871,1213.5C 1870.33,1139.5 1870.33,1065.5 1871,991.5C 1871.48,969.237 1876.82,948.237 1887,928.5C 1896.58,913.593 1909.75,903.093 1926.5,897C 1936.8,893.975 1947.13,891.809 1957.5,890.5 Z M 1987.5,973.5 C 2018.84,973.333 2050.17,973.5 2081.5,974C 2095.64,976.139 2103.81,984.306 2106,998.5C 2106.67,1067.83 2106.67,1137.17 2106,1206.5C 2103.81,1220.69 2095.64,1228.86 2081.5,1231C 2050.17,1231.67 2018.83,1231.67 1987.5,1231C 1973.83,1229 1965.66,1221.17 1963,1207.5C 1962.33,1137.5 1962.33,1067.5 1963,997.5C 1965.84,983.823 1974.01,975.823 1987.5,973.5 Z"/></g>
<g><path style="opacity:0.985" fill="#3653d6" d="M 3910.5,890.5 C 3935.37,887.617 3955.87,895.617 3972,914.5C 3979.19,923.371 3985.19,933.037 3990,943.5C 4007.13,981.415 4023.96,1019.41 4040.5,1057.5C 4052.17,1057.5 4063.83,1057.5 4075.5,1057.5C 4075.5,1003.83 4075.5,950.167 4075.5,896.5C 4106.17,896.5 4136.83,896.5 4167.5,896.5C 4167.5,950.167 4167.5,1003.83 4167.5,1057.5C 4179.08,1057.82 4190.58,1057.49 4202,1056.5C 4220.73,1014.71 4239.73,973.048 4259,931.5C 4267.07,917.427 4277.91,905.927 4291.5,897C 4301.17,892.54 4311.34,890.373 4322,890.5C 4337.33,891.333 4352.5,893.333 4367.5,896.5C 4368.5,923.158 4368.83,949.825 4368.5,976.5C 4360.49,976.334 4352.49,976.5 4344.5,977C 4337.43,979.115 4331.93,983.282 4328,989.5C 4311.22,1026.05 4294.72,1062.72 4278.5,1099.5C 4311.12,1169.07 4343.45,1238.74 4375.5,1308.5C 4343.17,1308.5 4310.83,1308.5 4278.5,1308.5C 4253.29,1253.08 4227.79,1197.75 4202,1142.5C 4190.58,1141.51 4179.08,1141.18 4167.5,1141.5C 4167.5,1197.17 4167.5,1252.83 4167.5,1308.5C 4136.83,1308.5 4106.17,1308.5 4075.5,1308.5C 4075.5,1252.83 4075.5,1197.17 4075.5,1141.5C 4063.92,1141.18 4052.42,1141.51 4041,1142.5C 4015.02,1197.62 3989.19,1252.79 3963.5,1308C 3931.17,1308.67 3898.83,1308.67 3866.5,1308C 3899.57,1238.69 3932.24,1169.19 3964.5,1099.5C 3948.2,1062.24 3931.37,1025.24 3914,988.5C 3910.42,984.248 3906.25,980.748 3901.5,978C 3892.57,976.619 3883.57,976.119 3874.5,976.5C 3874.17,949.825 3874.5,923.158 3875.5,896.5C 3887.26,894.3 3898.93,892.3 3910.5,890.5 Z"/></g>
<g><path style="opacity:0.991" fill="#3653d6" d="M 2320.5,896.5 C 2413.83,896.5 2507.17,896.5 2600.5,896.5C 2600.5,1033.83 2600.5,1171.17 2600.5,1308.5C 2570.17,1308.5 2539.83,1308.5 2509.5,1308.5C 2509.5,1198.83 2509.5,1089.17 2509.5,979.5C 2474.5,979.5 2439.5,979.5 2404.5,979.5C 2400.3,1064.51 2395.8,1149.51 2391,1234.5C 2388.45,1259.75 2378.29,1281.25 2360.5,1299C 2342.82,1312.73 2322.82,1317.73 2300.5,1314C 2287.7,1313.32 2275.03,1311.65 2262.5,1309C 2260.51,1282.39 2259.85,1255.56 2260.5,1228.5C 2270.57,1228.9 2280.57,1228.4 2290.5,1227C 2298.41,1222.41 2303.24,1215.58 2305,1206.5C 2310.37,1103.17 2315.54,999.841 2320.5,896.5 Z"/></g>
<g><path style="opacity:0.986" fill="#3653d6" d="M 2732.5,896.5 C 2826.17,896.5 2919.83,896.5 3013.5,896.5C 3013.5,1033.83 3013.5,1171.17 3013.5,1308.5C 2982.83,1308.5 2952.17,1308.5 2921.5,1308.5C 2921.5,1198.83 2921.5,1089.17 2921.5,979.5C 2886.5,979.5 2851.5,979.5 2816.5,979.5C 2812.67,1062.51 2808.5,1145.51 2804,1228.5C 2802.66,1257.34 2791.5,1281.5 2770.5,1301C 2752.99,1313.03 2733.66,1317.37 2712.5,1314C 2699.7,1313.32 2687.04,1311.65 2674.5,1309C 2672.51,1282.39 2671.85,1255.56 2672.5,1228.5C 2682.57,1228.9 2692.57,1228.4 2702.5,1227C 2710.32,1223.18 2715.15,1217.01 2717,1208.5C 2722.82,1104.53 2727.98,1000.53 2732.5,896.5 Z"/></g>
<g><path style="opacity:0.99" fill="#3653d6" d="M 3110.5,896.5 C 3203.83,896.5 3297.17,896.5 3390.5,896.5C 3390.5,924.167 3390.5,951.833 3390.5,979.5C 3327.5,979.5 3264.5,979.5 3201.5,979.5C 3201.5,1005.5 3201.5,1031.5 3201.5,1057.5C 3250.83,1057.5 3300.17,1057.5 3349.5,1057.5C 3349.5,1085.5 3349.5,1113.5 3349.5,1141.5C 3300.17,1141.5 3250.83,1141.5 3201.5,1141.5C 3201.5,1169.5 3201.5,1197.5 3201.5,1225.5C 3264.5,1225.5 3327.5,1225.5 3390.5,1225.5C 3390.5,1253.17 3390.5,1280.83 3390.5,1308.5C 3297.17,1308.5 3203.83,1308.5 3110.5,1308.5C 3110.5,1171.17 3110.5,1033.83 3110.5,896.5 Z"/></g>
<g><path style="opacity:0.988" fill="#3653d6" d="M 3517.5,896.5 C 3605.83,896.5 3694.17,896.5 3782.5,896.5C 3782.5,1006.17 3782.5,1115.83 3782.5,1225.5C 3795.17,1225.5 3807.83,1225.5 3820.5,1225.5C 3820.5,1278.5 3820.5,1331.5 3820.5,1384.5C 3791.5,1384.5 3762.5,1384.5 3733.5,1384.5C 3732.01,1359.15 3730.34,1333.82 3728.5,1308.5C 3663.5,1308.5 3598.5,1308.5 3533.5,1308.5C 3531.83,1333.83 3530.17,1359.17 3528.5,1384.5C 3499.5,1384.5 3470.5,1384.5 3441.5,1384.5C 3441.5,1331.5 3441.5,1278.5 3441.5,1225.5C 3452.51,1225.67 3463.51,1225.5 3474.5,1225C 3487.8,1206.89 3496.63,1186.73 3501,1164.5C 3503.27,1154.63 3504.6,1144.63 3505,1134.5C 3509.11,1055.16 3513.28,975.825 3517.5,896.5 Z M 3598.5,979.5 C 3629.17,979.5 3659.83,979.5 3690.5,979.5C 3690.5,1061.5 3690.5,1143.5 3690.5,1225.5C 3648.49,1225.83 3606.49,1225.5 3564.5,1224.5C 3576.55,1201.17 3584.72,1176.5 3589,1150.5C 3593.16,1093.56 3596.33,1036.56 3598.5,979.5 Z"/></g>
</svg>
